<?xml version="1.0" standalone="no"?>
<!DOCTYPE svg PUBLIC "-//W3C//DTD SVG 20010904//EN"
 "http://www.w3.org/TR/2001/REC-SVG-20010904/DTD/svg10.dtd">
<svg version="1.0" xmlns="http://www.w3.org/2000/svg"
 width="128.000000pt" height="128.000000pt" viewBox="0 0 128.000000 128.000000"
 preserveAspectRatio="xMidYMid meet">

<g transform="translate(0.000000,128.000000) scale(0.100000,-0.100000)"
fill="#000000" stroke="none">
<path d="M262 1224 c-34 -18 -65 -54 -82 -98 -8 -22 -15 -26 -52 -26 -49 0
-60 -6 -77 -37 -17 -33 -13 -67 10 -97 16 -20 29 -26 60 -26 l39 0 0 -120 0
-120 -37 0 c-44 0 -56 -6 -72 -37 -17 -33 -13 -67 10 -97 16 -20 29 -26 60
-26 l39 0 2 -218 3 -217 28 -3 c19 -2 27 -9 27 -23 0 -12 7 -19 20 -19 13 0
20 7 20 20 0 13 7 20 20 20 13 0 20 -7 20 -20 0 -13 7 -20 20 -20 13 0 20 7
20 20 0 13 7 20 20 20 13 0 20 -7 20 -20 0 -13 7 -20 20 -20 13 0 20 7 20 20
0 13 7 20 20 20 13 0 20 -7 20 -20 0 -13 7 -20 20 -20 13 0 20 7 20 20 0 13 7
20 20 20 13 0 20 -7 20 -20 0 -13 7 -20 20 -20 13 0 20 7 20 20 0 13 7 20 20
20 13 0 20 -7 20 -20 0 -13 7 -20 20 -20 13 0 20 7 20 20 0 13 7 20 20 20 13
0 20 -7 20 -20 0 -13 7 -20 20 -20 13 0 20 7 20 20 0 13 7 20 20 20 13 0 20
-7 20 -20 0 -13 7 -20 20 -20 13 0 20 7 20 19 0 14 8 21 28 23 l27 3 3 146 3
147 82 3 c98 5 133 25 167 94 17 34 27 45 45 45 30 0 65 44 65 80 0 37 -35 80
-66 80 -18 0 -27 9 -38 35 -8 19 -26 46 -40 60 l-25 25 25 25 c14 14 32 41 40
60 11 26 20 35 38 35 31 0 66 43 66 80 0 36 -35 80 -65 80 -18 0 -28 11 -45
45 -12 25 -36 55 -53 67 -32 23 -36 23 -407 25 -330 3 -379 1 -408 -13z m-102
-204 c0 -39 -1 -40 -34 -40 -26 0 -36 5 -41 20 -12 38 3 60 41 60 33 0 34 -1
34 -40z m960 0 l0 -40 -44 0 c-48 0 -64 19 -51 60 5 16 15 20 51 20 l44 0 0
-40z m74 15 c6 -17 -2 -45 -14 -45 -12 0 -20 28 -14 45 4 8 10 15 14 15 4 0
10 -7 14 -15z m-294 -239 c0 -3 -4 -8 -10 -11 -5 -3 -10 -1 -10 4 0 6 5 11 10
11 6 0 10 -2 10 -4z m140 -11 c25 -13 60 -60 60 -80 0 -3 -20 -5 -44 -5 -53 0
-76 -24 -76 -80 0 -56 23 -80 76 -80 24 0 44 -3 44 -7 0 -22 -42 -71 -70 -83
-27 -11 -36 -11 -65 3 -102 48 -106 278 -7 331 35 19 46 19 82 1z m-880 -165
c0 -39 -1 -40 -34 -40 -26 0 -36 5 -41 20 -12 38 3 60 41 60 33 0 34 -1 34
-40z m960 0 l0 -40 -44 0 c-48 0 -64 19 -51 60 5 16 15 20 51 20 l44 0 0 -40z
m74 15 c6 -17 -2 -45 -14 -45 -12 0 -20 28 -14 45 4 8 10 15 14 15 4 0 10 -7
14 -15z m-299 -185 c3 -5 1 -10 -4 -10 -6 0 -11 5 -11 10 0 6 2 10 4 10 3 0 8
-4 11 -10z m-55 -190 c0 -20 -7 -20 -320 -20 -313 0 -320 0 -320 20 0 20 7 20
320 20 313 0 320 0 320 -20z m0 -90 l0 -30 -320 0 -320 0 0 30 0 30 320 0 320
0 0 -30z"/>
</g>
</svg>
